<svg xmlns="http://www.w3.org/2000/svg" height="48" viewBox="0 -960 960 960" width="48"><path d="M412.326-142.804q-26.23 0-44.43-18.201-18.2-18.2-18.2-44.43v-136.348q0-24.632 18.2-43.25 18.2-18.619 44.43-18.619h136.348q24.632 0 43.251 18.619 18.619 18.618 18.619 43.25v136.348q0 26.23-18.619 44.43-18.619 18.201-43.251 18.201H412.326ZM427-220.109h106v-106H427v106ZM99.87-467.326q-13.066 10.478-28.813 8.394-15.748-2.085-25.324-15.678-10.45-11.673-8.506-27.7 1.945-16.028 16.012-25.886L433.37-821.283q11.038-8.478 22.68-12.717 11.642-4.239 23.95-4.239T503.95-834q11.642 4.239 22.68 12.717l126.261 95.457v-36.087q0-23.015 16.205-39.268 16.205-16.254 42.361-16.254 25.199 0 41.969 16.971t16.77 41.181v125.355l137.326 105.732q12.533 10.272 14.745 26.092 2.211 15.821-7.267 28.158-10.478 13.337-26.141 15.218-15.663 1.88-28.729-8.598L480-760.174 99.87-467.326ZM480-273.109Z"/></svg>